<svg width="512" height="512" viewBox="98 116 316 316" xmlns="http://www.w3.org/2000/svg">
  <!-- Solid sandcastle figure only — NO background circle. GitHub adds its own
       circular badge + background color around this. Transparent background;
       sized to nearly fill GitHub's circle with a small margin. -->

  <g fill="#ffffff">
    <!-- mast + pennant, connected into the keep -->
    <rect x="251" y="116" width="10" height="82" rx="5"/>
    <path d="M261 124 L304 140 L261 156 Z"/>

    <!-- fused body: base + three towers, rounded, overlapping into one shape -->
    <rect x="104" y="332" width="304" height="100" rx="18"/>
    <rect x="104" y="238" width="84"  height="160" rx="14"/>
    <rect x="324" y="238" width="84"  height="160" rx="14"/>
    <rect x="196" y="186" width="120" height="212" rx="16"/>

    <!-- rounded merlons -->
    <rect x="104" y="216" width="20" height="30" rx="6"/><rect x="136" y="216" width="20" height="30" rx="6"/><rect x="168" y="216" width="20" height="30" rx="6"/>
    <rect x="324" y="216" width="20" height="30" rx="6"/><rect x="356" y="216" width="20" height="30" rx="6"/><rect x="388" y="216" width="20" height="30" rx="6"/>
    <rect x="196" y="164" width="22" height="32" rx="6"/><rect x="229" y="164" width="22" height="32" rx="6"/><rect x="262" y="164" width="22" height="32" rx="6"/><rect x="294" y="164" width="22" height="32" rx="6"/>
  </g>
</svg>
